<svg id="aa61ef0d-0d0d-4111-b84f-0a48403f9fed" data-name="Layer 1" xmlns="http://www.w3.org/2000/svg" width="865.76" height="682.89" viewBox="0 0 865.76 682.89"><rect x="431.2" y="474.34" width="10.71" height="187.41" fill="#bcbec0"/><rect x="401.8" y="612.8" width="68.95" height="9.64" rx="3.89" fill="#d1d3d4"/><rect x="690.86" y="474.34" width="10.71" height="187.41" fill="#bcbec0"/><polygon points="486.28 627.65 490.3 602.76 520.81 611.78 515.59 628.85 486.28 627.65" fill="#f9b499"/><path d="M475.73,642.89l6.47-14.39a5.55,5.55,0,0,1,5.05-3.26H514a5.53,5.53,0,0,1,5.41,6.7l-6.72,31.12a6.13,6.13,0,0,1-6.12,4.84l-64.61-1.31v-8.23l30.25-12.06A6.59,6.59,0,0,0,475.73,642.89Z" fill="#00726D"/><path d="M340.08,666.59H321.43a7.33,7.33,0,0,1-6.56-3.84c-1-1.91-1.11-4.22,1.9-6.18a10.16,10.16,0,0,1,2.44-1.12l28.36-9.13s7.43-1.81,5.62-9.24c0,0-3-11,6.22-11h21.71s4.59-.8,4.39,2.61l-1.2,37.94Z" fill="#00726D"/><path d="M340.08,666.59H321.43a7.33,7.33,0,0,1-6.56-3.84c-1-1.91-1.11-4.22,1.9-6.18a10.16,10.16,0,0,1,2.44-1.12l28.36-9.13s7.43-1.81,5.62-9.24c0,0-3-11,6.22-11h21.71s4.59-.8,4.39,2.61l-1.2,37.94Z" opacity="0.2"/><polygon points="321.27 504.4 359.41 626.04 381.12 626.04 360.22 504.4 321.27 504.4" fill="#f9b499"/><polygon points="387.52 626.04 410.8 626.04 393.14 504.4 360.22 504.4 387.52 626.04" fill="#f9b499"/><path d="M403,316.51a27,27,0,0,1,4.44,1.6l-.83,27.3-10.54-.8Z" fill="#f4a790"/><polygon points="261.14 302.1 268.33 354.41 289.41 354.41 297.1 302.1 261.14 302.1" fill="#ccc"/><polygon points="259.65 295.4 257.92 302.1 299.33 302.1 297.1 295.4 259.65 295.4" fill="#a7a9ac"/><path d="M295.19,315.12a18.47,18.47,0,0,1-13.3,1.12,33,33,0,0,0-6.51-1.47,31.05,31.05,0,0,0-12.37.91l5.32,38.73h21.08Z" fill="#a7a9ac"/><rect x="133.37" y="473.74" width="10.71" height="187.41" fill="#bcbec0"/><rect x="103.97" y="612.19" width="68.95" height="9.64" rx="3.89" fill="#d1d3d4"/><rect x="82.97" y="459.03" width="111.19" height="18.8" rx="7.59" fill="#d1d3d4"/><rect x="98.89" y="657.76" width="79.71" height="9.64" rx="3.89" fill="#d1d3d4"/><rect x="597.49" y="364.31" width="21.55" height="302.28" fill="#ccc"/><rect x="597.49" y="364.31" width="21.55" height="302.28" opacity="0.2"/><rect x="186.11" y="364.31" width="21.55" height="302.28" fill="#ccc"/><rect x="186.11" y="364.31" width="21.55" height="302.28" opacity="0.2"/><polygon points="177.2 571.14 188.78 552.17 207.66 565.82 198.42 585.09 177.2 571.14" fill="#f9b499"/><polygon points="230.54 605.67 233.75 626.04 261.85 626.04 257.04 605.84 230.54 605.67" fill="#f9b499"/><path d="M141.41,459l63.94,51.81a21.25,21.25,0,0,1,7.45,12.26l17.74,86.08h29.71L242.5,487.66a23.59,23.59,0,0,0-3.37-9.17L226.93,459Z" fill="#363540"/><path d="M141.41,459l63.94,51.81a21.25,21.25,0,0,1,7.45,12.26l17.74,86.08h29.71L242.5,487.66a23.59,23.59,0,0,0-3.37-9.17L226.93,459Z" opacity="0.2"/><path d="M103.07,370.9s-4.59,15.72-9.54,26.18a74,74,0,0,0-6.86,23.48c-1.71,15.26.14,35.3,20.62,38.47H226.93s-33.73,66.64-43.77,94.75c0,0,22.09,17.66,29.71,18.47,0,0,56.21-103.59,57.42-132.09,0,0,4.59-8.43-9.15-14.85,0,0-21.77-11.65-86.81-21.28,0,0-6-24.69-8.33-29.81Z" fill="#363540"/><path d="M95.24,298.49s-16,38.62,10,41q.36-7.32.48-15c.12-7.85,0-15.43-.24-22.69A27.18,27.18,0,0,1,95.24,298.49Z" fill="#f9b499"/><path d="M95.24,298.49l.65-6.64s6,1.41,9,1.37c0,0,.38,3.91.55,8.58C105.43,301.8,99.31,301.2,95.24,298.49Z" fill="#00726D"/><path d="M95.24,298.49l.65-6.64s6,1.41,9,1.37c0,0,.38,3.91.55,8.58C105.43,301.8,99.31,301.2,95.24,298.49Z" opacity="0.2"/><ellipse cx="180.03" cy="198.37" rx="18.68" ry="28.47" fill="#f9b499"/><path d="M142.81,229.2l-3.4,12.53,5.37,3.47a14.14,14.14,0,0,0,7.71,2.28h15.4l7.05-25.34-9.37-5.76Z" fill="#f9b499"/><path d="M92.92,290.84s12.8-42.84,26.9-45.19l19.59-3.92,6.83,4.29a21.07,21.07,0,0,0,7.68,1.46h14l22.9,16.23s3.62,3.61,5.42,11.84l12.85,46.88-20.78,13.85L180,309.48s-2,16.56-9.81,19.57c0,0-1.21,35.53-4.22,45.17l-62.93-3.32s4.52-46.37,1.81-77.68A34.74,34.74,0,0,1,92.92,290.84Z" fill="#00726D"/><polygon points="186.11 329.2 208 318.54 209.06 322.43 188.28 336.28 186.11 329.2" opacity="0.2"/><path d="M212.42,334.49l-3.36-12.06-20.78,13.85,5.12,15.29a4.17,4.17,0,0,0,4,2.84h67.36a45.33,45.33,0,0,0,10-1.12l13.7-3.09a3.19,3.19,0,0,0,2.47-2.83l.67-7.63a3.17,3.17,0,0,0-3.16-3.46H274.87l7.8-6.73a1.55,1.55,0,0,0,0-2.31h0A1.55,1.55,0,0,0,281,327c-3.76,1.72-17.75,8.57-21.69,17.31-7.07-1.91-14.56-3.73-22.45-5.4C228.37,337.08,220.19,335.64,212.42,334.49Z" fill="#f9b499"/><path d="M169.51,388.45,103.07,370.9,166,374.22S169.51,384,169.51,388.45Z" opacity="0.2"/><path d="M153.25,594.63l16.8-22.32a7.62,7.62,0,0,1,10.24-1.81l20.52,13.35a8.12,8.12,0,0,1,2.36,11.27l-5.55,8.44,24.07,27.91a6.62,6.62,0,0,1,.11,8.51h0a6.63,6.63,0,0,1-8.66,1.41l-58-36.55A7.05,7.05,0,0,1,153.25,594.63Z" fill="#00726D"/><path d="M230.54,666.59s-6-1.6-5.22-7.62l4.28-28.68a7.35,7.35,0,0,1,7.26-6.25h25.83A7.34,7.34,0,0,1,270,632.3l-.46,3.6a8.45,8.45,0,0,0,5.27,8.93l29,11.47a5.33,5.33,0,0,1,3.09,6.65h0a5.34,5.34,0,0,1-5.06,3.64Z" fill="#00726D"/><rect x="86.18" y="354.41" width="640.75" height="19.81" fill="#ccc"/><rect x="380.8" y="459.63" width="111.19" height="18.8" rx="7.59" fill="#d1d3d4"/><rect x="396.72" y="658.36" width="79.71" height="9.64" rx="3.89" fill="#d1d3d4"/><rect x="640.46" y="459.63" width="111.19" height="18.8" rx="7.59" fill="#d1d3d4"/><rect x="661.46" y="612.8" width="68.95" height="9.64" rx="3.89" fill="#d1d3d4"/><rect x="656.38" y="658.36" width="79.71" height="9.64" rx="3.89" fill="#d1d3d4"/><path d="M436.4,252V205.29l25,27.09.9,18.53S451,261.9,436.4,252Z" fill="#f9b499"/><path d="M499.53,314.3l-26.1-1.61v19.47c-9.83,2.81-18.5,5.14-25.72,7-14.92,3.88-21.7,5.32-30.29,5.94-4.57.33-8.35.34-10.86.29q.4-13.65.83-27.3l-15.06-5.42,1.41-17.46s0-28.36,13.63-33.15l29-10.11s11.54,10,25.89-1.06l8.94,3.37,19.47,8.63s8,3.61,8.83,11.44Z" fill="#00726D"/><path d="M307.81,354.41s18.74-15.43,35.4-7.71l31-13.15,2.07,12.88s-8.49,2-13.26,8Z" fill="#f4a790"/><polygon points="368.66 302.1 376.29 346.43 398.98 344.49 404.99 302.1 368.66 302.1" fill="#ccc"/><polygon points="405.45 295.4 407.07 302.1 366.81 302.1 368.66 295.55 405.45 295.4" fill="#a7a9ac"/><path d="M403,316.51c-4.06,1.6-9.7.85-13.12.15a28,28,0,0,1-4.37-1.36c-6.13-2.36-14.65-.74-14.65-.74l5.48,31.87L399,344.49Z" fill="#a7a9ac"/><path d="M405,374.22l-3.85,22.13L334,420.59s-14.75,4.21-15.66,27.1c0,0-2.71,51.49-1.9,56.71H363s-4.69-70.56,23.8-74.18c0,0,49.57-.9,57.09-10.23l2-45.77Z" fill="#363540"/><path d="M405,374.22l-3.85,22.13L334,420.59s-14.75,4.21-15.66,27.1c0,0-2.71,51.49-1.9,56.71H363s-4.69-70.56,23.8-74.18c0,0,49.57-.9,57.09-10.23l2-45.77Z" opacity="0.2"/><path d="M415.42,630.46s-1-4.42-4.62-4.42H387.52s-8.23-.2-9.24,9.24a23.31,23.31,0,0,1-.27,3.16,9.31,9.31,0,0,1-7.32,7.62c-9.44,2-33.24,7.59-32.76,14.51,0,0,0,.08,0,.22a8.11,8.11,0,0,0,8.14,8.41h67.55s7.63.2,5.62-11.44Z" fill="#00726D"/><path d="M655.7,308.2l-25.2-13s16.4-43.84,34-54.64c0,0,13.61-8.56,24.81-9.88,0,0,2,13.08,15.6,10.28,0,0,10.4-1.49,13.2-12.15,0,0,42.81,12.55,53.61,57.76l-29.6,6.4s32.06,31.26,4.8,135.62L651.3,393.81Z" fill="#00726D"/><path d="M559.75,342.2,619,317.11l14.18-20.48L655.7,308.2s-6,37.41-24.08,37.21l-62.23,9H512.88S527.21,333.3,559.75,342.2Z" fill="#f4a790"/><path d="M483.67,608.18,530,612.8s35.45-126.21,44.52-134.37l90.38-79.65-13.64-5s-97.17,1.79-109.21,25.87C542.09,419.68,516.19,464.85,483.67,608.18Z" fill="#363540"/><path d="M483.67,608.18,530,612.8s35.45-126.21,44.52-134.37l90.38-79.65-13.64-5s-97.17,1.79-109.21,25.87C542.09,419.68,516.19,464.85,483.67,608.18Z" opacity="0.2"/><polygon points="625.06 609.04 630.8 628.85 658.58 626.77 657.27 607.8 625.06 609.04" fill="#f9b499"/><path d="M626.55,640.76l-.93-9.71a5.55,5.55,0,0,1,5.26-6.08L657,623.76a5.55,5.55,0,0,1,5.75,4.74l5,33.9a4.88,4.88,0,0,1-4.84,5.59l-69.23-.09a7.37,7.37,0,0,1-7.11-5.09c-.59-1.94-.3-4.14,2.34-6.07C588.85,656.74,625.06,647.25,626.55,640.76Z" fill="#00726D"/><path d="M690.76,216.45l-1.45,14.26s.92,11.51,13.8,10.56c0,0,12.68-1.4,15-12.43l-2.44-19.55,5.22-12.48-6.6-4.92S706.89,213.93,690.76,216.45Z" fill="#f9b499"/><rect x="170.19" y="121.44" width="546.84" height="15.54" fill="#ccc" opacity="0.5"/><path d="M295.78,56.61V34.27h-6.32V57a10.77,10.77,0,0,0-7,10.09v54.37H304V67.07A10.78,10.78,0,0,0,295.78,56.61Z" fill="#ccc"/><rect x="291.26" y="79.13" width="12.74" height="34.33" fill="#a7a9ac"/><path d="M603.57,56.61V34.27h-6.32V57a10.77,10.77,0,0,0-7,10.09v54.37h21.55V67.07A10.78,10.78,0,0,0,603.57,56.61Z" fill="#ccc"/><rect x="590.24" y="76.82" width="15.28" height="32.72" fill="#a7a9ac"/><path d="M400.56,42.65V13.49h-8.73V42.93a14.45,14.45,0,0,0-9.63,13.62v64.89h28.9V56.55A14.43,14.43,0,0,0,400.56,42.65Z" fill="#ccc"/><rect x="382.2" y="67.47" width="20.17" height="42.08" fill="#a7a9ac"/><path d="M483.21,42.65V13.49h-8.74V42.93a14.45,14.45,0,0,0-9.63,13.62v64.89h28.91V56.55A14.44,14.44,0,0,0,483.21,42.65Z" fill="#ccc"/><rect x="473.57" y="67.47" width="20.17" height="42.08" fill="#a7a9ac"/><path d="M553.23,42.65V13.49h-8.74V42.93a14.47,14.47,0,0,0-9.63,13.62v64.89h28.91V56.55A14.44,14.44,0,0,0,553.23,42.65Z" fill="#ccc"/><rect x="543.59" y="67.47" width="20.17" height="42.08" fill="#a7a9ac"/><path d="M652.79,42.65V13.49h-8.73V42.93a14.45,14.45,0,0,0-9.63,13.62v64.89h28.9V56.55A14.43,14.43,0,0,0,652.79,42.65Z" fill="#ccc"/><rect x="643.16" y="67.47" width="20.17" height="42.08" fill="#a7a9ac"/><path d="M200.28,181.39l-22.47,1.83s-5,44.15-22.2,47.28c0,0-15.67,3.14-30.3,1.31,0,0-12.8,0-12.28-18,0,0,.26-9.4,2.61-16.72,0,0-10,13.85-2.62,29.78,0,0-11.74-9.14-.77-32.39,0,0,12-28,41.57-37.23A37.72,37.72,0,0,1,186,161.48,34.94,34.94,0,0,1,200.28,181.39Z" fill="#363540"/><path d="M461.56,235.8v-6.32s-11.18,1.25-16.48-5.95C445.08,223.53,450.81,235,461.56,235.8Z" fill="#f4a790"/><ellipse cx="459.39" cy="203.38" rx="19.91" ry="29" fill="#f9b499"/><path d="M436.4,242.23s9.23-5.48,8.68-18.7c0,0-3.56-4.79-5.37-14.22l-.23-10.84s16.49,4,29.54-10.64c0,0-2.21,12.45-19.68,19.07,0,0,21.78-2.15,26.45-19.94,0,0,9.74,19.61-3.54,38.55a19.44,19.44,0,0,1-10.69,6.7c0,.82,0,2.07,0,3.59,0,1.25.08,2,.14,3,.2,3.29.13,3.79.31,7.47.05,1.06.14,2.67.28,4.65l8.94,3.37s21.67-17.67,23.88-41.56c0,0,.28,23.89-15.82,41.56,0,0,9.73-6,16.44-19.84a48.43,48.43,0,0,0-1.15-44.7c-3.59-6.4-8.9-12.72-16.73-16.56,0,0-17.06-21.48-46.37-3.62,0,0-26.5,13.45-5,59.82,0,0-18.07-1.4-31.52,12.65,0,0-28.3,35.13-31.91,36.53,0,0,15-11.4,25.65-23.71a85.76,85.76,0,0,1,10.76-10.46,40,40,0,0,1,7.75-5.17S382.61,263.67,372.91,278a15.08,15.08,0,0,0,.06,17.1c0,.05.14.4.18.44l20.68-.08s-.69-29.73,16.17-34.35L436.4,252Z" fill="#363540"/><ellipse cx="438.05" cy="203.19" rx="4.37" ry="6.62" fill="#f9b499"/><path d="M494.31,354.41s5.42-.5,5.22-11V314.3l-26.1-1.61v19.47s-57.27,14-66.87,13.25c0,0-30.49-5.89-43.53,9Z" fill="#f9b499"/><path d="M396.35,504.4H357.21s-4.22-25.56-.39-47.09a35.23,35.23,0,0,1,31.34-28.9c8.33-.8,19.11-2,28.74-3.48a29.41,29.41,0,0,0,24.84-27.43L443,374.22h33.42s8.81,20.27,11.49,39.71a42.62,42.62,0,0,1-15.87,39.71,34.37,34.37,0,0,1-18.5,7.3s-38.54,4.81-55.4,4.81Z" fill="#363540"/><path d="M690,224.43l.81-8,15.6-1.62S701.23,225.91,690,224.43Z" fill="#f4a790"/><ellipse cx="692.63" cy="191.89" rx="21.66" ry="27.97" fill="#f9b499"/><path d="M691.54,170.05s2.62,6.57,16.25,5.42V188a15.13,15.13,0,0,1,5.86-4.75c4.06-2,8.43,1,8.89,5.53a12.22,12.22,0,0,1-1.65,8.08s20.56-28.23,4.47-36.28c0,0,2.24-17.57-14.48-20.36H700.07s-8.37-4.6-9.35-9.52a8.94,8.94,0,0,0,1.91,7.55s-18.09-11.66-21.66-1.15c0,0-1.43,5.42,1.85,7.55,0,0-16.42-.82-16.58,12,0,0-1.78,16.21,22.34,14,0,0-9.54,3.56-15,.93C663.63,171.53,676.6,179.41,691.54,170.05Z" fill="#363540"/><ellipse cx="717.02" cy="190.19" rx="6.14" ry="8.53" fill="#f9b499"/><polygon points="672.16 302.55 667.05 354.41 645.37 354.41 638.44 302.55 672.16 302.55" fill="#ccc"/><polygon points="634.83 302.55 636.23 294.62 674.57 294.62 676.98 302.55 634.83 302.55" fill="#a7a9ac"/><path d="M670.84,316a26,26,0,0,1-7.94,1.16,31.13,31.13,0,0,1-10-1.54c-4.75-1.46-12.63.37-12.63.37l5.13,38.41h21.68Z" fill="#a7a9ac"/><path d="M748.52,322.6l-6.4-29.6,29.6-6.4,11.6,46.95s3.19,12.32-7.23,16.67a15,15,0,0,1-6.62,1.06l-87.36-4.85s-12.08,9.46-35.26,3.77a7.33,7.33,0,0,1-5.55-7.15V337.6a7.37,7.37,0,0,1,7.38-7.38H660.1l10-3.22v-6s11.21.44,11.21,9.22Z" fill="#f9b499"/><path d="M744.23,427.64s4.73,38.46-82.17,38.1c0,0-24-.72-33.54-3.24L664.94,610l-42.19,1.81L580.93,504s-14.17-39-4.86-66.63a36.27,36.27,0,0,1,20.53-21.8c10.68-4.45,31.51-11.21,68.34-16.75Z" fill="#363540"/></svg>